<svg width="162" height="66" viewBox="0 0 162 66" fill="none" xmlns="http://www.w3.org/2000/svg">
<path d="M29.5227 24.925V43H26.5602V31.325C26.5602 30.8583 26.5852 30.3542 26.6352 29.8125L21.1727 40.075C20.9143 40.5667 20.5185 40.8125 19.9852 40.8125H19.5102C18.9768 40.8125 18.581 40.5667 18.3227 40.075L12.7977 29.775C12.8227 30.05 12.8435 30.3208 12.8602 30.5875C12.8768 30.8542 12.8852 31.1 12.8852 31.325V43H9.92266V24.925H12.4602C12.6102 24.925 12.7393 24.9292 12.8477 24.9375C12.956 24.9458 13.0518 24.9667 13.1352 25C13.2268 25.0333 13.306 25.0875 13.3727 25.1625C13.4477 25.2375 13.5185 25.3375 13.5852 25.4625L18.9977 35.5C19.1393 35.7667 19.2685 36.0417 19.3852 36.325C19.5102 36.6083 19.631 36.9 19.7477 37.2C19.8643 36.8917 19.9852 36.5958 20.1102 36.3125C20.2352 36.0208 20.3685 35.7417 20.5102 35.475L25.8477 25.4625C25.9143 25.3375 25.9852 25.2375 26.0602 25.1625C26.1352 25.0875 26.2143 25.0333 26.2977 25C26.3893 24.9667 26.4893 24.9458 26.5977 24.9375C26.706 24.9292 26.8352 24.925 26.9852 24.925H29.5227ZM40.9398 35.1125C40.9398 34.7125 40.8815 34.3375 40.7648 33.9875C40.6565 33.6292 40.4898 33.3167 40.2648 33.05C40.0398 32.7833 39.7523 32.575 39.4023 32.425C39.0607 32.2667 38.6607 32.1875 38.2023 32.1875C37.3107 32.1875 36.6065 32.4417 36.0898 32.95C35.5815 33.4583 35.2565 34.1792 35.1148 35.1125H40.9398ZM35.0523 36.975C35.1023 37.6333 35.219 38.2042 35.4023 38.6875C35.5857 39.1625 35.8273 39.5583 36.1273 39.875C36.4273 40.1833 36.7815 40.4167 37.1898 40.575C37.6065 40.725 38.0648 40.8 38.5648 40.8C39.0648 40.8 39.494 40.7417 39.8523 40.625C40.219 40.5083 40.5357 40.3792 40.8023 40.2375C41.0773 40.0958 41.3148 39.9667 41.5148 39.85C41.7232 39.7333 41.9232 39.675 42.1148 39.675C42.3732 39.675 42.5648 39.7708 42.6898 39.9625L43.5773 41.0875C43.2357 41.4875 42.8523 41.825 42.4273 42.1C42.0023 42.3667 41.5565 42.5833 41.0898 42.75C40.6315 42.9083 40.1607 43.0208 39.6773 43.0875C39.2023 43.1542 38.7398 43.1875 38.2898 43.1875C37.3982 43.1875 36.569 43.0417 35.8023 42.75C35.0357 42.45 34.369 42.0125 33.8023 41.4375C33.2357 40.8542 32.7898 40.1375 32.4648 39.2875C32.1398 38.4292 31.9773 37.4375 31.9773 36.3125C31.9773 35.4375 32.119 34.6167 32.4023 33.85C32.6857 33.075 33.0898 32.4042 33.6148 31.8375C34.1482 31.2625 34.794 30.8083 35.5523 30.475C36.319 30.1417 37.1815 29.975 38.1398 29.975C38.9482 29.975 39.694 30.1042 40.3773 30.3625C41.0607 30.6208 41.6482 31 42.1398 31.5C42.6315 31.9917 43.0148 32.6 43.2898 33.325C43.5732 34.0417 43.7148 34.8625 43.7148 35.7875C43.7148 36.2542 43.6648 36.5708 43.5648 36.7375C43.4648 36.8958 43.2732 36.975 42.9898 36.975H35.0523ZM48.9443 32.4C49.3443 31.6333 49.8193 31.0333 50.3693 30.6C50.9193 30.1583 51.5693 29.9375 52.3193 29.9375C52.911 29.9375 53.386 30.0667 53.7443 30.325L53.5443 32.6375C53.5027 32.7875 53.4402 32.8958 53.3568 32.9625C53.2818 33.0208 53.1777 33.05 53.0443 33.05C52.9193 33.05 52.7318 33.0292 52.4818 32.9875C52.2402 32.9458 52.0027 32.925 51.7693 32.925C51.4277 32.925 51.1235 32.975 50.8568 33.075C50.5902 33.175 50.3485 33.3208 50.1318 33.5125C49.9235 33.6958 49.736 33.9208 49.5693 34.1875C49.411 34.4542 49.261 34.7583 49.1193 35.1V43H46.0318V30.175H47.8443C48.161 30.175 48.3818 30.2333 48.5068 30.35C48.6318 30.4583 48.7152 30.6583 48.7568 30.95L48.9443 32.4ZM59.899 36.275C60.2824 36.275 60.6157 36.225 60.899 36.125C61.1824 36.0167 61.4157 35.8708 61.599 35.6875C61.7907 35.5042 61.9324 35.2833 62.024 35.025C62.124 34.7667 62.174 34.4833 62.174 34.175C62.174 33.5417 61.9824 33.0417 61.599 32.675C61.224 32.3 60.6574 32.1125 59.899 32.1125C59.1407 32.1125 58.5699 32.3 58.1865 32.675C57.8115 33.0417 57.624 33.5417 57.624 34.175C57.624 34.475 57.6699 34.7542 57.7615 35.0125C57.8615 35.2708 58.0032 35.4958 58.1865 35.6875C58.3782 35.8708 58.6157 36.0167 58.899 36.125C59.1907 36.225 59.524 36.275 59.899 36.275ZM63.3865 43.575C63.3865 43.325 63.3115 43.1208 63.1615 42.9625C63.0115 42.8042 62.8074 42.6833 62.549 42.6C62.2907 42.5083 61.9865 42.4417 61.6365 42.4C61.2949 42.3583 60.9282 42.3292 60.5365 42.3125C60.1532 42.2875 59.7532 42.2667 59.3365 42.25C58.9282 42.2333 58.5282 42.2 58.1365 42.15C57.7949 42.3417 57.5157 42.5667 57.299 42.825C57.0907 43.0833 56.9865 43.3833 56.9865 43.725C56.9865 43.95 57.0407 44.1583 57.149 44.35C57.2657 44.55 57.4449 44.7208 57.6865 44.8625C57.9365 45.0042 58.2574 45.1125 58.649 45.1875C59.0407 45.2708 59.5199 45.3125 60.0865 45.3125C60.6615 45.3125 61.1574 45.2667 61.574 45.175C61.9907 45.0917 62.3324 44.9708 62.599 44.8125C62.874 44.6625 63.074 44.4792 63.199 44.2625C63.324 44.0542 63.3865 43.825 63.3865 43.575ZM66.4615 30.6125V31.7625C66.4615 32.1292 66.2407 32.3542 65.799 32.4375L64.649 32.65C64.824 33.0917 64.9115 33.575 64.9115 34.1C64.9115 34.7333 64.7824 35.3083 64.524 35.825C64.274 36.3333 63.924 36.7667 63.474 37.125C63.024 37.4833 62.4907 37.7625 61.874 37.9625C61.2657 38.1542 60.6074 38.25 59.899 38.25C59.649 38.25 59.4074 38.2375 59.174 38.2125C58.9407 38.1875 58.7115 38.1542 58.4865 38.1125C58.0865 38.3542 57.8865 38.625 57.8865 38.925C57.8865 39.1833 58.0032 39.375 58.2365 39.5C58.4782 39.6167 58.7949 39.7 59.1865 39.75C59.5782 39.8 60.024 39.8333 60.524 39.85C61.024 39.8583 61.5365 39.8833 62.0615 39.925C62.5865 39.9667 63.099 40.0417 63.599 40.15C64.099 40.25 64.5449 40.4125 64.9365 40.6375C65.3282 40.8625 65.6407 41.1708 65.874 41.5625C66.1157 41.9458 66.2365 42.4417 66.2365 43.05C66.2365 43.6167 66.0949 44.1667 65.8115 44.7C65.5365 45.2333 65.1324 45.7083 64.599 46.125C64.074 46.5417 63.424 46.875 62.649 47.125C61.8824 47.3833 61.0074 47.5125 60.024 47.5125C59.0574 47.5125 58.2157 47.4167 57.499 47.225C56.7824 47.0417 56.1865 46.7917 55.7115 46.475C55.2365 46.1667 54.8824 45.8083 54.649 45.4C54.4157 44.9917 54.299 44.5667 54.299 44.125C54.299 43.525 54.4782 43.025 54.8365 42.625C55.2032 42.2167 55.7032 41.8917 56.3365 41.65C55.9949 41.475 55.724 41.2417 55.524 40.95C55.324 40.6583 55.224 40.275 55.224 39.8C55.224 39.6083 55.2574 39.4125 55.324 39.2125C55.399 39.0042 55.5032 38.8 55.6365 38.6C55.7782 38.4 55.9532 38.2125 56.1615 38.0375C56.3699 37.8542 56.6157 37.6917 56.899 37.55C56.249 37.2 55.7365 36.7333 55.3615 36.15C54.9949 35.5667 54.8115 34.8833 54.8115 34.1C54.8115 33.4667 54.9365 32.8958 55.1865 32.3875C55.4449 31.8708 55.799 31.4333 56.249 31.075C56.7074 30.7083 57.2449 30.4292 57.8615 30.2375C58.4865 30.0458 59.1657 29.95 59.899 29.95C60.449 29.95 60.9657 30.0083 61.449 30.125C61.9324 30.2333 62.374 30.3958 62.774 30.6125H66.4615ZM76.4623 35.1125C76.4623 34.7125 76.404 34.3375 76.2873 33.9875C76.179 33.6292 76.0123 33.3167 75.7873 33.05C75.5623 32.7833 75.2748 32.575 74.9248 32.425C74.5831 32.2667 74.1831 32.1875 73.7248 32.1875C72.8331 32.1875 72.129 32.4417 71.6123 32.95C71.104 33.4583 70.779 34.1792 70.6373 35.1125H76.4623ZM70.5748 36.975C70.6248 37.6333 70.7415 38.2042 70.9248 38.6875C71.1081 39.1625 71.3498 39.5583 71.6498 39.875C71.9498 40.1833 72.304 40.4167 72.7123 40.575C73.129 40.725 73.5873 40.8 74.0873 40.8C74.5873 40.8 75.0165 40.7417 75.3748 40.625C75.7415 40.5083 76.0581 40.3792 76.3248 40.2375C76.5998 40.0958 76.8373 39.9667 77.0373 39.85C77.2456 39.7333 77.4456 39.675 77.6373 39.675C77.8956 39.675 78.0873 39.7708 78.2123 39.9625L79.0998 41.0875C78.7581 41.4875 78.3748 41.825 77.9498 42.1C77.5248 42.3667 77.079 42.5833 76.6123 42.75C76.154 42.9083 75.6831 43.0208 75.1998 43.0875C74.7248 43.1542 74.2623 43.1875 73.8123 43.1875C72.9206 43.1875 72.0915 43.0417 71.3248 42.75C70.5581 42.45 69.8915 42.0125 69.3248 41.4375C68.7581 40.8542 68.3123 40.1375 67.9873 39.2875C67.6623 38.4292 67.4998 37.4375 67.4998 36.3125C67.4998 35.4375 67.6415 34.6167 67.9248 33.85C68.2081 33.075 68.6123 32.4042 69.1373 31.8375C69.6706 31.2625 70.3165 30.8083 71.0748 30.475C71.8415 30.1417 72.704 29.975 73.6623 29.975C74.4706 29.975 75.2165 30.1042 75.8998 30.3625C76.5831 30.6208 77.1706 31 77.6623 31.5C78.154 31.9917 78.5373 32.6 78.8123 33.325C79.0956 34.0417 79.2373 34.8625 79.2373 35.7875C79.2373 36.2542 79.1873 36.5708 79.0873 36.7375C78.9873 36.8958 78.7956 36.975 78.5123 36.975H70.5748ZM81.4543 34.1625H87.9293V36.7375H81.4543V34.1625ZM107.072 28.2125C106.972 28.3875 106.864 28.5167 106.747 28.6C106.639 28.675 106.501 28.7125 106.335 28.7125C106.16 28.7125 105.968 28.65 105.76 28.525C105.56 28.3917 105.318 28.2458 105.035 28.0875C104.751 27.9292 104.418 27.7875 104.035 27.6625C103.66 27.5292 103.214 27.4625 102.697 27.4625C102.23 27.4625 101.822 27.5208 101.472 27.6375C101.122 27.7458 100.826 27.9 100.585 28.1C100.351 28.3 100.176 28.5417 100.06 28.825C99.9429 29.1 99.8846 29.4042 99.8846 29.7375C99.8846 30.1625 100.001 30.5167 100.235 30.8C100.476 31.0833 100.793 31.325 101.185 31.525C101.576 31.725 102.022 31.9042 102.522 32.0625C103.022 32.2208 103.535 32.3917 104.06 32.575C104.585 32.75 105.097 32.9583 105.597 33.2C106.097 33.4333 106.543 33.7333 106.935 34.1C107.326 34.4583 107.639 34.9 107.872 35.425C108.114 35.95 108.235 36.5875 108.235 37.3375C108.235 38.1542 108.093 38.9208 107.81 39.6375C107.535 40.3458 107.126 40.9667 106.585 41.5C106.051 42.025 105.397 42.4417 104.622 42.75C103.847 43.05 102.96 43.2 101.96 43.2C101.385 43.2 100.818 43.1417 100.26 43.025C99.7012 42.9167 99.1637 42.7583 98.6471 42.55C98.1387 42.3417 97.6596 42.0917 97.2096 41.8C96.7596 41.5083 96.3596 41.1833 96.0096 40.825L96.9971 39.2125C97.0804 39.0958 97.1887 39 97.3221 38.925C97.4554 38.8417 97.5971 38.8 97.7471 38.8C97.9554 38.8 98.1804 38.8875 98.4221 39.0625C98.6637 39.2292 98.9512 39.4167 99.2846 39.625C99.6179 39.8333 100.005 40.025 100.447 40.2C100.897 40.3667 101.435 40.45 102.06 40.45C103.018 40.45 103.76 40.225 104.285 39.775C104.81 39.3167 105.072 38.6625 105.072 37.8125C105.072 37.3375 104.951 36.95 104.71 36.65C104.476 36.35 104.164 36.1 103.772 35.9C103.38 35.6917 102.935 35.5167 102.435 35.375C101.935 35.2333 101.426 35.0792 100.91 34.9125C100.393 34.7458 99.8846 34.5458 99.3846 34.3125C98.8846 34.0792 98.4387 33.775 98.0471 33.4C97.6554 33.025 97.3387 32.5583 97.0971 32C96.8637 31.4333 96.7471 30.7375 96.7471 29.9125C96.7471 29.2542 96.8762 28.6125 97.1346 27.9875C97.4012 27.3625 97.7846 26.8083 98.2846 26.325C98.7846 25.8417 99.4012 25.4542 100.135 25.1625C100.868 24.8708 101.71 24.725 102.66 24.725C103.726 24.725 104.71 24.8917 105.61 25.225C106.51 25.5583 107.276 26.025 107.91 26.625L107.072 28.2125ZM116.306 29.975C117.256 29.975 118.119 30.1292 118.894 30.4375C119.677 30.7458 120.344 31.1833 120.894 31.75C121.452 32.3167 121.881 33.0083 122.181 33.825C122.481 34.6417 122.631 35.5542 122.631 36.5625C122.631 37.5792 122.481 38.4958 122.181 39.3125C121.881 40.1292 121.452 40.825 120.894 41.4C120.344 41.975 119.677 42.4167 118.894 42.725C118.119 43.0333 117.256 43.1875 116.306 43.1875C115.348 43.1875 114.477 43.0333 113.694 42.725C112.911 42.4167 112.24 41.975 111.681 41.4C111.131 40.825 110.702 40.1292 110.394 39.3125C110.094 38.4958 109.944 37.5792 109.944 36.5625C109.944 35.5542 110.094 34.6417 110.394 33.825C110.702 33.0083 111.131 32.3167 111.681 31.75C112.24 31.1833 112.911 30.7458 113.694 30.4375C114.477 30.1292 115.348 29.975 116.306 29.975ZM116.306 40.8125C117.373 40.8125 118.161 40.4542 118.669 39.7375C119.186 39.0208 119.444 37.9708 119.444 36.5875C119.444 35.2042 119.186 34.15 118.669 33.425C118.161 32.7 117.373 32.3375 116.306 32.3375C115.223 32.3375 114.419 32.7042 113.894 33.4375C113.377 34.1625 113.119 35.2125 113.119 36.5875C113.119 37.9625 113.377 39.0125 113.894 39.7375C114.419 40.4542 115.223 40.8125 116.306 40.8125ZM127.899 32.4C128.299 31.6333 128.774 31.0333 129.324 30.6C129.874 30.1583 130.524 29.9375 131.274 29.9375C131.866 29.9375 132.341 30.0667 132.699 30.325L132.499 32.6375C132.458 32.7875 132.395 32.8958 132.312 32.9625C132.237 33.0208 132.133 33.05 131.999 33.05C131.874 33.05 131.687 33.0292 131.437 32.9875C131.195 32.9458 130.958 32.925 130.724 32.925C130.383 32.925 130.079 32.975 129.812 33.075C129.545 33.175 129.304 33.3208 129.087 33.5125C128.879 33.6958 128.691 33.9208 128.524 34.1875C128.366 34.4542 128.216 34.7583 128.074 35.1V43H124.987V30.175H126.799C127.116 30.175 127.337 30.2333 127.462 30.35C127.587 30.4583 127.67 30.6583 127.712 30.95L127.899 32.4ZM138.588 43.2C137.471 43.2 136.613 42.8875 136.013 42.2625C135.421 41.6292 135.126 40.7583 135.126 39.65V32.4875H133.813C133.646 32.4875 133.505 32.4333 133.388 32.325C133.271 32.2167 133.213 32.0542 133.213 31.8375V30.6125L135.276 30.275L135.926 26.775C135.967 26.6083 136.046 26.4792 136.163 26.3875C136.28 26.2958 136.43 26.25 136.613 26.25H138.213V30.2875H141.638V32.4875H138.213V39.4375C138.213 39.8375 138.309 40.15 138.501 40.375C138.701 40.6 138.971 40.7125 139.313 40.7125C139.505 40.7125 139.663 40.6917 139.788 40.65C139.921 40.6 140.034 40.55 140.126 40.5C140.226 40.45 140.313 40.4042 140.388 40.3625C140.463 40.3125 140.538 40.2875 140.613 40.2875C140.705 40.2875 140.78 40.3125 140.838 40.3625C140.896 40.4042 140.959 40.4708 141.026 40.5625L141.951 42.0625C141.501 42.4375 140.984 42.7208 140.401 42.9125C139.817 43.1042 139.213 43.2 138.588 43.2Z" fill="black"/>
<path d="M128 59.5H160.5V30" stroke="#3C1455" stroke-width="3"/>
<path d="M128 54H155V30" stroke="#540298" stroke-width="3"/>
<path d="M128 48.5H148.5V30" stroke="#9474A8" stroke-width="3"/>
</svg>
